<svg xmlns="http://www.w3.org/2000/svg" xmlns:xlink="http://www.w3.org/1999/xlink" viewBox="0 0 48 48" version="1.1" width="30" height="30"><path d="M13,19 L13,11.0824916 C13,5.51408524 17.923532,1 24,1 C30.0751322,1 35,5.51842091 35,11.0824916 L35,19 L37.231498,19 C39.3127842,19 41,20.7941203 41,22.9968389 L41,43.0031611 C41,45.2105543 39.3139347,47 37.231498,47 L10.768502,47 C8.68721581,47 7,45.2058797 7,43.0031611 L7,22.9968389 C7,20.7894457 8.68606529,19 10.768502,19 L13,19 Z M11,23 L11,43 L37,43 L37,23 L11,23 Z M31,19 L31,11.0824916 C31,7.80730244 27.938142,5 24,5 C20.0591794,5 17,7.80424889 17,11.0824916 L17,19 L31,19 Z M22,30.5688344 C22,29.4644775 22.8877296,28.5692194 24,28.5692194 C25.1045695,28.5692194 26,29.4566527 26,30.5688344 L26,36.5696044 C26,37.6739613 25.1122704,38.5692194 24,38.5692194 C22.8954305,38.5692194 22,37.6817861 22,36.5696044 L22,30.5688344 Z"/></svg>
